<svg xmlns="http://www.w3.org/2000/svg" xmlns:xlink="http://www.w3.org/1999/xlink" viewBox="0 0 1000 1000"><defs><style>.cls-1{isolation:isolate;}.cls-13,.cls-14,.cls-15,.cls-16,.cls-2{fill:#d8d9dd;}.cls-3{fill:url(#linear-gradient);}.cls-4{fill:url(#linear-gradient-2);}.cls-5,.cls-6{fill:#231f20;}.cls-5{opacity:0.3;}.cls-5,.cls-6,.cls-8{mix-blend-mode:overlay;}.cls-6{opacity:0.6;}.cls-7{fill:#fff;}.cls-8{opacity:0.4;}.cls-9{fill:#70798a;mix-blend-mode:screen;}.cls-21,.cls-9{fill-rule:evenodd;}.cls-10,.cls-12{mix-blend-mode:multiply;}.cls-11,.cls-12{fill:#697994;}.cls-13{font-size:67.07px;}.cls-13,.cls-14,.cls-15,.cls-16{font-family:CenturyGothic-Bold, Century Gothic;font-weight:700;}.cls-14{font-size:109.23px;}.cls-15{font-size:110.67px;}.cls-16{font-size:109.34px;}.cls-17{fill:#999;}.cls-18{fill:#f2f2f2;}.cls-19,.cls-21{fill:#2979ff;}.cls-20{fill:#40c4ff;}</style><linearGradient id="linear-gradient" x1="547.7" y1="433.75" x2="803.27" y2="158.71" gradientUnits="userSpaceOnUse"><stop offset="0" stop-color="#b1b7c2"/><stop offset="1" stop-color="#fff"/></linearGradient><linearGradient id="linear-gradient-2" x1="495.75" y1="469.53" x2="737.58" y2="230.22" gradientUnits="userSpaceOnUse"><stop offset="0" stop-color="#0032c3"/><stop offset="0.42" stop-color="#0077ba"/><stop offset="0.81" stop-color="#00b1b2"/><stop offset="1" stop-color="#00c8af"/></linearGradient></defs><title>Artboard 1</title><g class="cls-1"><g id="home-ico"><polygon class="cls-2" points="417.42 243.29 403.57 243.29 403.57 268.59 417.42 253.6 417.42 243.29"/><polygon class="cls-2" points="459.43 287.36 417.42 287.36 403.57 287.36 403.57 333 417.42 333 424.46 333 424.46 311.29 438.54 311.29 438.54 333 459.43 333 459.43 287.36"/><polygon class="cls-2" points="417.42 284.77 459.43 284.77 471 284.77 431.5 242 417.42 257.25 403.57 272.25 392 284.77 403.57 284.77 417.42 284.77"/></g><g id="topic-ico"><path class="cls-3" d="M612.07,180.25C638.25,149.13,788.89,249,795.86,317S645.69,492.9,600.61,447C561.48,407.16,540.94,264.81,612.07,180.25Z"/><path class="cls-4" d="M668.37,450.54C630.62,457.67,525.86,318.74,543,261.6s135.92-81.33,210.76-32.45C834.12,281.61,732.32,438.45,668.37,450.54Z"/><path class="cls-5" d="M729.74,254.65C772,274.44,747.87,380.09,717,406.26c-32.47,27.57-139.77,15.31-144.21-87.55C570.81,272,638,211.73,729.74,254.65Z"/><path class="cls-6" d="M729.74,249.93C772,269.72,747.87,375.37,717,401.54,684.56,429.11,577.26,416.85,572.83,314,570.81,267.28,638,207,729.74,249.93Z"/><path class="cls-7" d="M729.74,244.23C772,264,747.87,369.66,717,395.83c-32.47,27.57-139.77,15.31-144.21-87.55C570.81,261.58,638,201.3,729.74,244.23Z"/><path class="cls-7" d="M729.74,241.25C772,261,747.87,366.68,717,392.85c-32.47,27.57-139.77,15.31-144.21-87.55C570.81,258.59,638,198.32,729.74,241.25Z"/><g class="cls-8"><path class="cls-7" d="M673.91,405.92c-24,0-48-8.34-65.77-22.88-21.9-17.94-34.23-44.82-35.65-77.72-.65-15.17,6-31.9,18.34-45.89,18.59-21.13,46.85-33.24,77.55-33.24,19.94,0,40.63,5,61.5,14.72,12.17,5.7,19.83,19,22.16,38.58,4.59,38.56-12.64,94.86-34.79,113.67C707.68,401.27,691.89,405.92,673.91,405.92Zm-5.53-179c-30.51,0-58.59,12-77.05,33-12.18,13.84-18.79,30.37-18.15,45.34,3,69,52.73,99.89,100.73,99.89,17.83,0,33.47-4.6,42.92-12.62,22-18.67,39.1-74.63,34.53-113-2.29-19.27-9.82-32.41-21.75-38C708.82,231.86,688.22,226.93,668.37,226.93Z"/></g></g><g id="email-ico"><path class="cls-9" d="M961.37,229.38c0,31.71-26.59,57.41-59.39,57.41s-59.4-25.7-59.4-57.41S869.18,172,902,172,961.37,197.67,961.37,229.38Z"/><g class="cls-10"><polygon class="cls-11" points="901.95 230.21 882.17 215.47 921.78 215.47 901.95 230.21"/><polygon class="cls-11" points="895.08 228.98 879.09 241.58 879.09 217.06 895.08 228.98"/><polygon class="cls-11" points="897.67 230.9 901.94 234.08 906.43 230.74 922.06 243.28 881.96 243.28 897.67 230.9"/><polygon class="cls-11" points="909.02 228.82 924.87 217.06 924.87 241.55 909.02 228.82"/></g></g><g id="pswd-ico"><path class="cls-9" d="M961.37,390.63c0,31.71-26.59,57.41-59.39,57.41s-59.4-25.71-59.4-57.41,26.59-57.41,59.4-57.41S961.37,358.93,961.37,390.63Z"/><path class="cls-12" d="M914.75,381.09h-3v-3.62a12.53,12.53,0,0,0-25.06,0v3.62h-3a4.22,4.22,0,0,0-4.26,4.12v23.57a4.22,4.22,0,0,0,4.26,4.16h31.07a4.24,4.24,0,0,0,4.3-4.16V385.21A4.23,4.23,0,0,0,914.75,381.09Zm-22.4-3.62a6.87,6.87,0,0,1,13.74,0v3.62H892.36ZM901.54,402v6a.47.47,0,0,1-.49.44h-3a.45.45,0,0,1-.45-.44v-6a5.29,5.29,0,0,1-3.51-4.92,5.47,5.47,0,0,1,10.94,0A5.29,5.29,0,0,1,901.54,402Z"/></g><g id="settings-ico"><text class="cls-13" transform="translate(28 125.43) scale(0.95 1)">|||</text><text class="cls-14" transform="translate(31.52 66.67) scale(1.06 1)">.</text><text class="cls-15" transform="translate(69 66.23) scale(1.05 1)">.</text><text class="cls-16" transform="translate(107.01 65.55) scale(1.06 1)">.</text></g><g id="search-ico"><polygon class="cls-17" points="488.56 154.22 497.86 145.02 460.73 108.28 451.44 117.48 488.56 154.22"/><ellipse class="cls-17" cx="422.61" cy="79.5" rx="42.61" ry="41.5"/><ellipse class="cls-18" cx="422.95" cy="79.84" rx="30.68" ry="29.69"/></g><g id="profile-ico"><path class="cls-2" d="M207,124.61q0,1.32.08,2.62c1.46,23.91,96.55,23.75,97.86-.3q.06-1.15.06-2.32c0-25.14-21.94-45.51-49-45.51S207,99.47,207,124.61Z"/><ellipse class="cls-2" cx="256.79" cy="54.01" rx="20.44" ry="21.01"/></g><g id="back-ico"><polygon class="cls-19" points="729.5 83.18 804.22 126.96 804.78 40.36 729.5 83.18"/><rect class="cls-20" x="805" y="76" width="92" height="15"/></g><g id="viewt-ico"><ellipse class="cls-17" cx="625.5" cy="87" rx="52.5" ry="51"/><ellipse class="cls-18" cx="625.5" cy="87.59" rx="43.34" ry="42.16"/><polygon class="cls-17" points="639.86 86.34 636.67 89.32 616.15 69.79 618.4 66.66 639.86 86.34"/><polygon class="cls-17" points="636.7 83.84 638.53 86.19 638.88 87.39 636.62 89.6 617.61 108.44 615.12 105.24 636.7 83.84"/></g><g id="right-ico"><circle class="cls-19" cx="263.5" cy="488.5" r="60.5"/><ellipse class="cls-7" cx="263.5" cy="489.2" rx="49.95" ry="50.01"/><polygon class="cls-20" points="280.05 487.72 276.37 491.25 252.72 468.08 255.31 464.37 280.05 487.72"/><polygon class="cls-20" points="276.41 484.76 278.51 487.54 278.92 488.96 276.31 491.58 254.41 513.93 251.54 510.13 276.41 484.76"/></g><g id="left-ico"><ellipse class="cls-19" cx="100" cy="487.5" rx="62" ry="60.5"/><ellipse class="cls-7" cx="100" cy="488.2" rx="51.19" ry="50.01"/><polygon class="cls-20" points="83.04 486.72 86.81 490.25 111.04 467.08 108.39 463.37 83.04 486.72"/><polygon class="cls-20" points="86.77 483.76 84.62 486.54 84.2 487.96 86.87 490.58 109.31 512.93 112.26 509.13 86.77 483.76"/></g><g id="okbtn-ico"><ellipse class="cls-19" cx="99" cy="281.5" rx="75" ry="75.5"/><ellipse class="cls-7" cx="99.6" cy="281.8" rx="63.1" ry="63.82"/><polygon class="cls-21" points="100.78 283.6 82.93 306.67 121.62 283.6 82.93 260.53 100.78 283.6"/></g><g id="bookmark-ico"><path class="cls-2" d="M224.63,325.34c2.18-6.49,9.84-8.45,19-8.45s16.78,2,19,8.45c.74,2.2.62,2.24.62-.05,0-11.7,0-44.81,0-56.51,0-2.3.06-6.07-.77-8.24a10.33,10.33,0,0,0-5.42-5.66V248H230.2v6.88a10.33,10.33,0,0,0-5.42,5.66c-.83,2.17-.77,5.94-.77,8.24,0,11.7,0,44.81,0,56.51C224,327.58,223.89,327.54,224.63,325.34ZM232.5,254v-3.88h22.18v31.37l-10.78-10.39-11.4,10.39V254Z"/><path class="cls-2" d="M266.46,325.34c2.18-6.49,9.84-8.45,19-8.45s16.78,2,19,8.45c.74,2.2.62,2.24.62-.05,0-11.7,0-44.82,0-56.51,0-2.29.06-6.07-.77-8.24-2.36-6.22-9.88-8-18.8-8s-16.44,1.76-18.8,8c-.83,2.17-.77,5.94-.77,8.24,0,11.7,0,44.81,0,56.51C265.84,327.58,265.72,327.54,266.46,325.34Z"/></g></g></svg>